<svg width="20" height="21" viewBox="0 0 20 21" fill="none" xmlns="http://www.w3.org/2000/svg">
<path d="M11.537 6.30958C11.5684 6.23335 11.6182 6.16606 11.6819 6.11371C11.7455 6.06137 11.8212 6.02558 11.9021 6.00955C11.9829 5.99351 12.0665 5.99772 12.1454 6.02181C12.2242 6.04589 12.2959 6.08909 12.354 6.14758L16.354 10.1476C16.4006 10.194 16.4375 10.2492 16.4627 10.3099C16.4879 10.3707 16.5009 10.4358 16.5009 10.5016C16.5009 10.5673 16.4879 10.6325 16.4627 10.6932C16.4375 10.754 16.4006 10.8091 16.354 10.8556L12.354 14.8556C12.2601 14.9495 12.1328 15.0022 12 15.0022C11.8672 15.0022 11.7399 14.9495 11.646 14.8556C11.5521 14.7617 11.4994 14.6344 11.4994 14.5016C11.4994 14.3688 11.5521 14.2415 11.646 14.1476L14.793 11.0016H4C3.86739 11.0016 3.74021 10.9489 3.64645 10.8551C3.55268 10.7614 3.5 10.6342 3.5 10.5016C3.5 10.369 3.55268 10.2418 3.64645 10.148C3.74021 10.0543 3.86739 10.0016 4 10.0016H14.793L11.646 6.85558C11.5757 6.78563 11.5279 6.69637 11.5085 6.59915C11.4891 6.50193 11.499 6.40114 11.537 6.30958Z" fill="#333030"/>
</svg>
