<svg width="20" height="21" viewBox="0 0 20 21" fill="none" xmlns="http://www.w3.org/2000/svg">
<path d="M16.3021 5.08314H14.0258C13.1546 5.08314 12.4098 5.39227 11.7916 6.01054C11.2014 6.62881 10.9063 7.37354 10.9063 8.24473V10.4789H9.09368V13.1768H10.9063V19.4578H13.6042V13.1768H16.3021V10.4789H13.6042V8.66628C13.6042 8.44145 13.6885 8.24473 13.8571 8.07611C14.0258 7.87939 14.2365 7.78103 14.4895 7.78103H16.3021V5.08314ZM1 2.5C1 1.94772 1.44772 1.5 2 1.5H18C18.5523 1.5 19 1.94772 19 2.5V18.4578C19 19.0101 18.5523 19.4578 18 19.4578H2C1.44772 19.4578 1 19.0101 1 18.4578V2.5Z" fill="black"/>
</svg>
