<svg width="20" height="21" viewBox="0 0 20 21" fill="none" xmlns="http://www.w3.org/2000/svg">
<path d="M9.99998 3.12165C12.4031 3.12165 12.6877 3.1308 13.6367 3.1741C14.5142 3.21415 14.9908 3.36077 15.3079 3.48398C15.728 3.64725 16.0278 3.84231 16.3428 4.15723C16.6577 4.47215 16.8528 4.772 17.016 5.19206C17.1392 5.50923 17.2859 5.98577 17.3259 6.86323C17.3692 7.81228 17.3783 8.0969 17.3783 10.5C17.3783 12.9031 17.3692 13.1878 17.3259 14.1368C17.2859 15.0143 17.1392 15.4908 17.016 15.808C16.8528 16.228 16.6577 16.5279 16.3428 16.8428C16.0278 17.1577 15.728 17.3528 15.3079 17.516C14.9908 17.6393 14.5142 17.7859 13.6367 17.8259C12.6879 17.8692 12.4032 17.8784 9.99998 17.8784C7.59672 17.8784 7.3121 17.8692 6.36323 17.8259C5.48574 17.7859 5.00919 17.6393 4.69206 17.516C4.27196 17.3528 3.97212 17.1577 3.6572 16.8428C3.34227 16.5279 3.14721 16.228 2.98398 15.808C2.86073 15.4908 2.71411 15.0143 2.67406 14.1368C2.63076 13.1878 2.62162 12.9031 2.62162 10.5C2.62162 8.0969 2.63076 7.81228 2.67406 6.86326C2.71411 5.98577 2.86073 5.50923 2.98398 5.19206C3.14721 4.772 3.34227 4.47215 3.6572 4.15723C3.97212 3.84231 4.27196 3.64725 4.69206 3.48398C5.00919 3.36077 5.48574 3.21415 6.36319 3.1741C7.31224 3.1308 7.59687 3.12165 9.99998 3.12165ZM9.99998 1.5C7.55571 1.5 7.24926 1.51036 6.28931 1.55416C5.33133 1.59789 4.67712 1.75001 4.10462 1.97251C3.51279 2.20251 3.01088 2.51025 2.51055 3.01058C2.01021 3.51092 1.70247 4.01283 1.47247 4.60466C1.24997 5.17716 1.09785 5.83137 1.05412 6.78935C1.01032 7.74926 1 8.05575 1 10.5C1 12.9443 1.01032 13.2508 1.05412 14.2107C1.09785 15.1687 1.24997 15.8229 1.47247 16.3954C1.70247 16.9872 2.01021 17.4891 2.51055 17.9895C3.01088 18.4898 3.51279 18.7975 4.10462 19.0275C4.67712 19.25 5.33133 19.4021 6.28931 19.4459C7.24926 19.4897 7.55571 19.5 9.99998 19.5C12.4443 19.5 12.7507 19.4897 13.7107 19.4459C14.6686 19.4021 15.3228 19.25 15.8953 19.0275C16.4872 18.7975 16.9891 18.4898 17.4894 17.9895C17.9898 17.4891 18.2975 16.9872 18.5275 16.3954C18.75 15.8229 18.9021 15.1687 18.9458 14.2107C18.9896 13.2508 19 12.9443 19 10.5C19 8.05575 18.9896 7.74926 18.9458 6.78935C18.9021 5.83137 18.75 5.17716 18.5275 4.60466C18.2975 4.01283 17.9898 3.51092 17.4894 3.01058C16.9891 2.51025 16.4872 2.20251 15.8953 1.97251C15.3228 1.75001 14.6686 1.59789 13.7107 1.55416C12.7507 1.51036 12.4443 1.5 9.99998 1.5ZM9.99998 5.87838C7.44753 5.87838 5.37835 7.94757 5.37835 10.5C5.37835 13.0525 7.44753 15.1217 9.99998 15.1217C12.5524 15.1217 14.6216 13.0525 14.6216 10.5C14.6216 7.94757 12.5524 5.87838 9.99998 5.87838ZM9.99998 13.5C8.34314 13.5 6.99996 12.1569 6.99996 10.5C6.99996 8.84317 8.34314 7.5 9.99998 7.5C11.6568 7.5 13 8.84317 13 10.5C13 12.1569 11.6568 13.5 9.99998 13.5ZM15.8842 5.69579C15.8842 6.29226 15.4007 6.77581 14.8042 6.77581C14.2077 6.77581 13.7242 6.29226 13.7242 5.69579C13.7242 5.09931 14.2077 4.6158 14.8042 4.6158C15.4007 4.6158 15.8842 5.09931 15.8842 5.69579Z" fill="#0A0A08"/>
</svg>
