<svg width="20" height="21" viewBox="0 0 20 21" fill="none" xmlns="http://www.w3.org/2000/svg">
<path d="M17.1452 7.12529C17.1452 7.29391 17.1452 7.44848 17.1452 7.58899C17.1452 8.85363 16.9063 10.1042 16.4286 11.3407C15.9789 12.5492 15.3185 13.6593 14.4473 14.671C13.6042 15.6827 12.4941 16.5117 11.1171 17.1581C9.76815 17.7763 8.27869 18.0855 6.64871 18.0855C4.59719 18.0855 2.71429 17.5375 1 16.4415C1.28103 16.4696 1.57611 16.4836 1.88525 16.4836C3.59953 16.4836 5.13115 15.9637 6.48009 14.9239C5.66511 14.8958 4.93443 14.6429 4.28806 14.1651C3.66979 13.6874 3.24824 13.0831 3.02342 12.3525C3.24824 12.4087 3.47307 12.4368 3.69789 12.4368C4.03513 12.4368 4.35831 12.3806 4.66745 12.2681C3.82436 12.0995 3.12178 11.678 2.55972 11.0035C1.99766 10.329 1.71663 9.55621 1.71663 8.68501C1.71663 8.65691 1.71663 8.64286 1.71663 8.64286C2.25059 8.92389 2.81265 9.07845 3.40281 9.10656C2.30679 8.34777 1.75878 7.32201 1.75878 6.02927C1.75878 5.3548 1.9274 4.73653 2.26464 4.17447C3.19204 5.29859 4.30211 6.19789 5.59485 6.87237C6.91569 7.54684 8.33489 7.92623 9.85246 8.01054C9.79625 7.72951 9.76815 7.44848 9.76815 7.16745C9.76815 6.15574 10.1194 5.29859 10.822 4.59602C11.5527 3.86534 12.4239 3.5 13.4356 3.5C14.5035 3.5 15.4028 3.87939 16.1335 4.63817C16.9766 4.46956 17.7635 4.17447 18.4941 3.75293C18.2131 4.62412 17.6651 5.29859 16.8501 5.77635C17.6089 5.69204 18.3255 5.50937 19 5.22834C18.4941 5.95902 17.8759 6.59133 17.1452 7.12529Z" fill="black"/>
</svg>
