<svg width="20" height="21" viewBox="0 0 20 21" fill="none" xmlns="http://www.w3.org/2000/svg">
<path d="M18.7892 7.19789C18.9297 8.1815 19 9.15105 19 10.1066V11.4555L18.7892 14.3642C18.6768 15.1792 18.4379 15.7693 18.0726 16.1347C17.6792 16.5281 17.089 16.781 16.3021 16.8934C15.5433 16.9496 14.63 16.9918 13.5621 17.0199C12.5222 17.048 11.6651 17.0621 10.9906 17.0621H9.97892C6.85948 17.034 4.82201 16.9778 3.86651 16.8934C3.86651 16.8934 3.7541 16.8794 3.52927 16.8513C3.30445 16.8232 3.12178 16.7951 2.98126 16.767C2.84075 16.7389 2.65808 16.6686 2.43326 16.5562C2.23653 16.4438 2.05386 16.3033 1.88525 16.1347C1.74473 15.966 1.60422 15.7412 1.4637 15.4602C1.35129 15.1511 1.28103 14.8841 1.25293 14.6593L1.16862 14.3642C1.05621 13.3806 1 12.411 1 11.4555V10.1066L1.16862 7.19789C1.28103 6.3829 1.51991 5.79274 1.88525 5.4274C2.27869 5.00585 2.8829 4.75293 3.69789 4.66862C4.45667 4.61241 5.35597 4.57026 6.39578 4.54215C7.4356 4.51405 8.29274 4.5 8.96721 4.5H9.97892C12.5082 4.5 14.6159 4.55621 16.3021 4.66862C17.089 4.75293 17.6792 5.00585 18.0726 5.4274C18.185 5.53981 18.2834 5.68033 18.3677 5.84895C18.452 5.98946 18.5222 6.14403 18.5785 6.31265C18.6347 6.45316 18.6768 6.59368 18.7049 6.73419C18.733 6.87471 18.7611 6.98712 18.7892 7.07143V7.19789ZM12.4239 10.9075L13.0141 10.6124L8.16628 8.08314V13.1417L12.4239 10.9075Z" fill="black"/>
</svg>
