<svg width="20" height="20" viewBox="0 0 20 20" fill="none" xmlns="http://www.w3.org/2000/svg">
<path fill-rule="evenodd" clip-rule="evenodd" d="M10.6508 5.88032C11.1232 5.37776 11.7655 5.06874 12.453 5.0133C13.1404 4.95786 13.824 5.15995 14.3708 5.58032C15.7708 6.78032 15.5708 8.69032 14.5608 9.71032L9.77078 14.6003C9.72078 14.6603 9.67078 14.6603 9.58078 14.6003L4.80078 9.70032C4.53086 9.42544 4.32056 9.09782 4.18305 8.73796C4.04553 8.37809 3.98376 7.99371 4.00159 7.60888C4.01943 7.22405 4.11648 6.84703 4.28669 6.50143C4.4569 6.15582 4.69659 5.84905 4.99078 5.60032C6.05078 4.70032 7.69078 4.84032 8.73078 5.88032L9.69078 6.86032L10.6508 5.88032ZM9.69078 5.43032L9.93078 5.18032C10.5773 4.49788 11.4549 4.08084 12.3923 4.01058C13.3298 3.94032 14.2598 4.22188 15.0008 4.80032L15.0108 4.81032V4.82032C15.4116 5.15958 15.7382 5.57786 15.9702 6.04901C16.2021 6.52017 16.3344 7.03408 16.3588 7.55867C16.3832 8.08325 16.2992 8.60723 16.112 9.09788C15.9248 9.58853 15.6384 10.0353 15.2708 10.4103L10.4808 15.3103C10.293 15.4997 10.0437 15.6158 9.77792 15.6378C9.51211 15.6598 9.24717 15.5862 9.03078 15.4303L8.93078 15.3703L4.09078 10.4103C3.72366 10.037 3.43763 9.59194 3.25064 9.10292C3.06364 8.6139 2.97972 8.09151 3.00413 7.56853C3.02855 7.04554 3.16077 6.53324 3.3925 6.06377C3.62423 5.59429 3.95048 5.17777 4.35078 4.84032C5.08882 4.2492 6.02116 3.95533 6.96477 4.01638C7.90837 4.07744 8.79507 4.48902 9.45078 5.17032L9.46078 5.18032L9.70078 5.43032H9.69078Z" fill="black"/>
</svg>
