<svg width="20" height="20" viewBox="0 0 20 20" fill="none" xmlns="http://www.w3.org/2000/svg">
<path d="M17.4458 6.12079L14.6158 3.29079C14.4284 3.10454 14.175 3 13.9108 3C13.6466 3 13.3932 3.10454 13.2058 3.29079L9.3158 7.18079L3.2958 13.1908C3.20207 13.2838 3.12768 13.3944 3.07691 13.5162C3.02614 13.6381 3 13.7688 3 13.9008C3 14.0328 3.02614 14.1635 3.07691 14.2854C3.12768 14.4072 3.20207 14.5178 3.2958 14.6108L6.1158 17.4308C6.20876 17.5245 6.31936 17.5989 6.44122 17.6497C6.56308 17.7005 6.69379 17.7266 6.8258 17.7266C6.95781 17.7266 7.08852 17.7005 7.21037 17.6497C7.33223 17.5989 7.44283 17.5245 7.5358 17.4308L17.4358 7.53079C17.619 7.34386 17.7217 7.09255 17.7217 6.83079C17.7217 6.56904 17.619 6.31772 17.4358 6.13079L17.4458 6.12079ZM6.8458 16.7208L3.9958 13.9108L5.4058 12.5008L6.4658 13.5608C6.51242 13.6074 6.56776 13.6444 6.62867 13.6696C6.68958 13.6949 6.75487 13.7078 6.8208 13.7078C6.88673 13.7078 6.95201 13.6949 7.01292 13.6696C7.07383 13.6444 7.12918 13.6074 7.1758 13.5608C7.22242 13.5142 7.2594 13.4588 7.28463 13.3979C7.30986 13.337 7.32284 13.2717 7.32284 13.2058C7.32284 13.1399 7.30986 13.0746 7.28463 13.0137C7.2594 12.9528 7.22242 12.8974 7.1758 12.8508L6.1258 11.7808L7.5458 10.3608L8.5958 11.4208C8.69086 11.5034 8.81361 11.5471 8.93951 11.5432C9.06541 11.5393 9.18518 11.4879 9.27487 11.3995C9.36457 11.3111 9.41758 11.192 9.42332 11.0662C9.42905 10.9404 9.38708 10.817 9.3058 10.7208L8.2458 9.66079L9.6658 8.24079L10.7158 9.31079C10.9158 9.51079 11.2158 9.51079 11.4158 9.31079C11.6158 9.11079 11.6158 8.81079 11.4158 8.61079L10.3658 7.54079L11.7858 6.11079L12.8458 7.17079C12.9409 7.25343 13.0636 7.29715 13.1895 7.2932C13.3154 7.28925 13.4352 7.23793 13.5249 7.1495C13.6146 7.06106 13.6676 6.94203 13.6733 6.8162C13.6791 6.69037 13.6371 6.56702 13.5558 6.47079L12.4958 5.41079L13.9058 4.01079L16.7358 6.84079L6.8358 16.7408L6.8458 16.7208Z" fill="black"/>
</svg>
