<svg width="20" height="20" viewBox="0 0 20 20" fill="none" xmlns="http://www.w3.org/2000/svg">
<path fill-rule="evenodd" clip-rule="evenodd" d="M7.37355 3.79C7.42167 3.56597 7.54527 3.36527 7.72366 3.22146C7.90205 3.07766 8.12442 2.99948 8.35355 3H11.3636C11.5927 2.99948 11.8151 3.07766 11.9934 3.22146C12.1718 3.36527 12.2954 3.56597 12.3436 3.79C12.4105 4.09266 12.5452 4.37621 12.7375 4.6193C12.9298 4.86239 13.1748 5.0587 13.454 5.19346C13.7331 5.32822 14.0392 5.39793 14.3491 5.39733C14.6591 5.39673 14.9649 5.32584 15.2436 5.19C15.3728 5.12736 15.5141 5.09331 15.6577 5.09017C15.8014 5.08703 15.944 5.11488 16.0759 5.17181C16.2078 5.22875 16.3259 5.31344 16.4221 5.42012C16.5183 5.52679 16.5905 5.65295 16.6336 5.79L17.0036 7.02C17.0438 7.15408 17.0555 7.29513 17.0379 7.43401C17.0202 7.57289 16.9735 7.70651 16.901 7.82623C16.8284 7.94594 16.7315 8.04908 16.6165 8.12897C16.5015 8.20887 16.3711 8.26372 16.2336 8.29C15.606 8.40965 15.0371 8.73741 14.6188 9.22031C14.2005 9.70321 13.9572 10.313 13.9283 10.9513C13.8994 11.5895 14.0866 12.2188 14.4595 12.7375C14.8324 13.2563 15.3694 13.6341 15.9836 13.81C16.1116 13.8456 16.2313 13.9065 16.3356 13.9889C16.4399 14.0713 16.5267 14.1738 16.591 14.2901C16.6552 14.4065 16.6956 14.5346 16.7098 14.6668C16.724 14.7989 16.7117 14.9326 16.6736 15.06L16.2536 16.41C16.2049 16.5678 16.1179 16.7111 16.0003 16.8272C15.8827 16.9432 15.7383 17.0282 15.5798 17.0748C15.4213 17.1213 15.2538 17.1279 15.0922 17.0939C14.9305 17.0599 14.7799 16.9864 14.6536 16.88C14.3711 16.6426 14.0423 16.4666 13.6882 16.3631C13.334 16.2596 12.9622 16.2309 12.5963 16.2789C12.2305 16.3268 11.8786 16.4504 11.5631 16.6417C11.2475 16.833 10.9753 17.0878 10.7636 17.39C10.6714 17.522 10.5487 17.6299 10.406 17.7043C10.2632 17.7788 10.1046 17.8176 9.94355 17.8176C9.78254 17.8176 9.62391 17.7788 9.48115 17.7043C9.33838 17.6299 9.21571 17.522 9.12355 17.39C8.91878 17.0944 8.6562 16.8434 8.35169 16.6522C8.04718 16.4609 7.70705 16.3334 7.35187 16.2774C6.99668 16.2213 6.63381 16.2378 6.28519 16.3259C5.93657 16.414 5.60944 16.5719 5.32355 16.79C5.19636 16.8853 5.0483 16.9488 4.89164 16.9754C4.73498 17.002 4.57423 16.9909 4.42272 16.943C4.27121 16.8952 4.13329 16.8118 4.02039 16.7C3.9075 16.5882 3.82288 16.4511 3.77355 16.3L3.27355 14.7C3.1961 14.4545 3.21628 14.1886 3.3299 13.9577C3.44352 13.7267 3.64183 13.5485 3.88355 13.46C4.41962 13.2622 4.87977 12.9005 5.19871 12.4264C5.51765 11.9523 5.67917 11.3898 5.66035 10.8187C5.64154 10.2476 5.44334 9.69689 5.09389 9.24479C4.74444 8.79269 4.26148 8.46213 3.71355 8.3C3.58727 8.26225 3.4697 8.1999 3.36761 8.11655C3.26551 8.0332 3.18089 7.93049 3.11863 7.81432C3.05636 7.69816 3.01767 7.57083 3.00479 7.43966C2.99191 7.30849 3.00508 7.17606 3.04355 7.05L3.39355 5.92C3.43305 5.79094 3.49827 5.67122 3.58527 5.56803C3.67227 5.46485 3.77926 5.38035 3.89979 5.31962C4.02032 5.25888 4.1519 5.22318 4.2866 5.21465C4.4213 5.20612 4.55633 5.22495 4.68355 5.27C4.95743 5.3694 5.24935 5.40927 5.53986 5.38696C5.83036 5.36465 6.11277 5.28067 6.36826 5.14062C6.62375 5.00057 6.84646 4.80767 7.02153 4.57478C7.1966 4.34189 7.32002 4.07435 7.38355 3.79H7.37355ZM4.60355 6.29C5.00039 6.39389 5.41411 6.41665 5.81996 6.35693C6.2258 6.29721 6.61543 6.15624 6.96553 5.94245C7.31562 5.72866 7.619 5.44644 7.85749 5.11268C8.09599 4.77892 8.26471 4.40048 8.35355 4H11.3636C11.4607 4.45133 11.6594 4.87461 11.9445 5.23772C12.2296 5.60083 12.5937 5.89424 13.0091 6.09568C13.4245 6.29711 13.8803 6.40129 14.342 6.40031C14.8036 6.39933 15.259 6.29321 15.6736 6.09L16.0536 7.31C15.1998 7.46445 14.4238 7.90417 13.8526 8.55718C13.2814 9.21018 12.9488 10.0378 12.9093 10.9044C12.8698 11.7711 13.1258 12.6255 13.6352 13.3278C14.1446 14.0301 14.8774 14.5385 15.7136 14.77L15.3036 16.12C14.9161 15.7891 14.4636 15.5431 13.9751 15.3981C13.4866 15.2531 12.9732 15.2123 12.4679 15.2783C11.9627 15.3443 11.4769 15.5156 11.0421 15.7812C10.6072 16.0467 10.233 16.4007 9.94355 16.82C9.46955 16.1521 8.78679 15.6608 8.00285 15.4236C7.2189 15.1865 6.37833 15.2168 5.61355 15.51C5.30355 15.63 5.00355 15.8 4.72355 16.01L4.22355 14.4C4.81321 14.1891 5.33969 13.8319 5.75366 13.362C6.16763 12.8921 6.45555 12.3248 6.59045 11.7132C6.72535 11.1017 6.70282 10.4659 6.52496 9.86541C6.34711 9.26494 6.01975 8.71944 5.57355 8.28C5.13718 7.84016 4.59734 7.51694 4.00355 7.34L4.35355 6.22L4.60355 6.29Z" fill="black"/>
</svg>
