<svg width="20" height="21" viewBox="0 0 20 21" fill="none" xmlns="http://www.w3.org/2000/svg">
<path fill-rule="evenodd" clip-rule="evenodd" d="M9.96932 5.13102C10.1077 5.12221 10.2491 5.17069 10.3548 5.27646L13.0632 7.98479C13.2584 8.18005 13.2584 8.49663 13.0632 8.69189C12.8679 8.88716 12.5513 8.88716 12.3561 8.69189L10.5 6.83581V12.1301C10.5 12.4062 10.2761 12.6301 10 12.6301C9.72386 12.6301 9.5 12.4062 9.5 12.1301V6.83841L7.64652 8.69189C7.45126 8.88716 7.13468 8.88716 6.93942 8.69189C6.74415 8.49663 6.74415 8.18005 6.93942 7.98479L9.62627 5.29793C9.71151 5.2021 9.83305 5.13927 9.96932 5.13102ZM5.625 12.1301C5.625 11.854 5.40114 11.6301 5.125 11.6301C4.84886 11.6301 4.625 11.854 4.625 12.1301V14.2968C4.625 14.7167 4.79185 15.1194 5.08872 15.4163C5.38569 15.7133 5.78845 15.8801 6.20833 15.8801H13.7917C14.2116 15.8801 14.6143 15.7133 14.9113 15.4163C15.2082 15.1194 15.375 14.7167 15.375 14.2968V12.1301C15.375 11.854 15.1511 11.6301 14.875 11.6301C14.5989 11.6301 14.375 11.854 14.375 12.1301V14.2968C14.375 14.4515 14.3136 14.5998 14.2041 14.7092C14.0947 14.8187 13.9464 14.8801 13.7917 14.8801H6.20833C6.0536 14.8801 5.90524 14.8186 5.79588 14.7093C5.68643 14.5998 5.625 14.4514 5.625 14.2968V12.1301Z" fill="black"/>
</svg>
