<svg width="18" height="17" viewBox="0 0 18 17" fill="none" xmlns="http://www.w3.org/2000/svg">
<path fill-rule="evenodd" clip-rule="evenodd" d="M3.94157 0H0.781574L0.0115738 11.6C-0.0350324 12.2838 0.0594434 12.9699 0.289133 13.6156C0.518823 14.2614 0.878821 14.853 1.34677 15.3538C1.81472 15.8546 2.38063 16.2538 3.00936 16.5266C3.63808 16.7995 4.31619 16.9402 5.00157 16.94H12.3816C13.0661 16.9401 13.7433 16.7997 14.3713 16.5274C14.9993 16.2552 15.5647 15.8569 16.0325 15.3572C16.5003 14.8575 16.8605 14.2671 17.0909 13.6226C17.3212 12.978 17.4167 12.293 17.3716 11.61L16.5916 0H10.2666H3.94157ZM1.72157 1H3.94157V1.63C3.94157 2.25378 4.06444 2.87145 4.30315 3.44775C4.54186 4.02404 4.89174 4.54768 5.33282 4.98876C5.7739 5.42984 6.29753 5.77972 6.87383 6.01843C7.45012 6.25714 8.06779 6.38 8.69157 6.38C9.31535 6.38 9.93302 6.25714 10.5093 6.01843C11.0856 5.77972 11.6093 5.42984 12.0503 4.98876C12.4914 4.54768 12.8413 4.02404 13.08 3.44775C13.3187 2.87145 13.4416 2.25378 13.4416 1.63V1H15.6616L16.3816 11.67C16.4186 12.2175 16.3426 12.7669 16.1582 13.2838C15.9739 13.8007 15.6851 14.2741 15.3099 14.6746C14.9347 15.0752 14.4811 15.3942 13.9773 15.6119C13.4736 15.8296 12.9304 15.9413 12.3816 15.94H5.00157C4.45361 15.9399 3.91152 15.8272 3.40893 15.6089C2.90633 15.3906 2.45394 15.0713 2.07982 14.671C1.70571 14.2706 1.41784 13.7976 1.23408 13.2814C1.05032 12.7652 0.974587 12.2167 1.01157 11.67L1.72157 1ZM4.94157 1H12.4416V1.63C12.4416 2.62456 12.0465 3.57839 11.3432 4.28165C10.64 4.98491 9.68614 5.38 8.69157 5.38C7.69701 5.38 6.74318 4.98491 6.03992 4.28165C5.33666 3.57839 4.94157 2.62456 4.94157 1.63V1Z" fill="black"/>
</svg>
